Simulation
nRows=36
nColumns=15
endheader
time  TH_x TH_y TH_z SC_y  SC_z  SC_x  AC_y  AC_z  AC_x  GH_y  GH_z  GH_yy  EL_x  PS_y
0.0  0.000000  0.000000  0.000000  -28.516437709162936  -0.181386711645744  1.7917177525744885  47.96081813243959  4.036923189622939  -5.032771791600612  -111.02643872188601  2.288714332030196  142.46381096182589  22.804095858753726  0.000000
0.031  0.000000  0.000000  0.000000  -28.48259999873827  -0.01090941961302181  2.015638537929402  47.760189584116624  4.083802816973559  -5.171756306762543  -102.19193113582641  2.2532438180912333  133.55476973265704  22.76114675157952  0.000000
0.062  0.000000  0.000000  0.000000  -28.370839019735005  0.07861214149383754  2.2435130450835454  47.66231744198392  3.9296942716955363  -5.345927315846595  -93.8748783552369  2.1885522836832463  125.17833239020322  22.73821206189268  0.000000
0.093  0.000000  0.000000  0.000000  -28.3590232172001  0.09138581171365859  2.467968707009487  47.59903833571613  3.6825642523731887  -5.537659932894243  -85.59717242339357  2.057254931599643  116.81966544157841  22.693249014443325  0.000000
0.124  0.000000  0.000000  0.000000  -28.334345521414637  0.053338331553983744  2.676844625074662  47.52980885114916  3.419880398521121  -5.751478410627283  -77.11588148046667  1.8817997749764401  108.21962898204544  22.609506943262893  0.000000
0.155  0.000000  0.000000  0.000000  -28.334195340609362  -0.01307347024571024  2.873681781298825  47.48702489632637  3.169540567278763  -5.982514597872934  -65.96640668282134  1.6788846146805374  96.91226888769387  22.491178129171477  0.000000
0.186  0.000000  0.000000  0.000000  -28.349222408424264  -0.0900272907200372  3.0567818987151423  47.433804468174564  2.948008037859264  -6.208504541268994  -50.070503009490835  1.5211696457278212  80.7850565459978  22.344358613768065  0.000000
0.217  0.000000  0.000000  0.000000  -28.38777132038221  -0.1685372511414249  3.2293262062172636  47.39575140517121  2.7548431826117987  -6.428825827768533  -28.718571573024548  1.518002293650041  59.11647357779011  22.168383854193472  0.000000
0.248  0.000000  0.000000  0.000000  -28.448001533376242  -0.24063426768394378  3.394120127964703  47.35776229566445  2.5921955320486716  -6.63348301981406  -7.483381045882983  1.7779968345536912  37.468852363807684  21.980056827868527  0.000000
0.279  0.000000  0.000000  0.000000  -28.524137382777496  -0.30137377277374333  3.554134012264168  47.33011001262926  2.4548758190436297  -6.821609845030145  8.182252399598351  2.303913344120238  21.294364927085  21.779594125935645  0.000000
0.31  0.000000  0.000000  0.000000  -28.609823012619803  -0.34884429913303433  3.713076973679656  47.30988294508896  2.3427137703096323  -6.991342150933445  18.121665275415808  3.0336216391473667  10.754721592700058  21.582205626951232  0.000000
0.34099999999999997  0.000000  0.000000  0.000000  -28.698255509385152  -0.38274239646672575  3.8742611873802555  47.30359860009223  2.2502989536289477  -7.140001207798492  24.29607524072399  3.9158868519977377  3.8934721885746004  21.395218848065834  0.000000
0.372  0.000000  0.000000  0.000000  -28.78635328588452  -0.40699639564535717  4.040705910737898  47.3175024431781  2.1749807928105005  -7.265964162956263  28.177235615567845  4.919672027927024  -0.761293204682285  21.240937569468265  0.000000
0.403  0.000000  0.000000  0.000000  -28.874963861035702  -0.4263082708455154  4.214772285230933  47.36027083227582  2.11136466159326  -7.364764233434669  30.584305419651034  6.027118775756397  -4.031559421339384  21.140804650945316  0.000000
0.434  0.000000  0.000000  0.000000  -28.963585303296377  -0.44599691475674563  4.396992387957723  47.43845342444776  2.0576245853567396  -7.436913906435721  31.998535418010437  7.227346019296213  -6.400190895510734  21.11371000350074  0.000000
0.46499999999999997  0.000000  0.000000  0.000000  -29.048762292115565  -0.46756891778443854  4.588360184650527  47.551928608482044  2.0130618110779164  -7.482677763898864  32.69328083937206  8.511184792455934  -8.123914134706343  21.160453052747844  0.000000
0.496  0.000000  0.000000  0.000000  -29.119122767861523  -0.4882129676960791  4.789211840595143  47.695919536212436  1.9823369216523332  -7.509220170166777  32.890086908873954  9.8721582082793  -9.391661212177452  21.2625431054491  0.000000
0.527  0.000000  0.000000  0.000000  -29.164003265881266  -0.5000396127487373  4.9959391980021435  47.85793317029864  1.9741720359768091  -7.516349431849394  32.73416766153001  11.30212428596473  -10.304682364812706  21.387482136593526  0.000000
0.558  0.000000  0.000000  0.000000  -29.1778122953628  -0.4922115501567781  5.203897032548614  48.027396552682156  1.9953188095656804  -7.504298056844092  32.34686852899444  12.796982382534729  -10.948267352914971  21.504589728408337  0.000000
0.589  0.000000  0.000000  0.000000  -29.16720936624056  -0.4528239952811324  5.421685751458606  48.19371350479564  2.0402349414848167  -7.476553836270949  31.820184423480253  14.351526444615892  -11.391064420890126  21.594761847955166  0.000000
0.62  0.000000  0.000000  0.000000  -29.144280940533395  -0.37355407927031087  5.657510951255502  48.349031091596785  2.1033235787108953  -7.439239599827471  31.246758269726232  15.961991963047367  -11.720311297659007  21.650898886761222  0.000000
0.651  0.000000  0.000000  0.000000  -29.123181221058648  -0.2517832887622849  5.923511688669811  48.49007794821657  2.1759027479934554  -7.399343835964177  30.684839129009163  17.624028688111665  -11.997507673477754  21.671756740165147  0.000000
0.6819999999999999  0.000000  0.000000  0.000000  -29.107337778680503  -0.09160126315873025  6.227437679298083  48.61804399641503  2.251705104310771  -7.363445687552451  30.156692581304107  19.33479041022728  -12.254718743737316  21.66103177891688  0.000000
0.713  0.000000  0.000000  0.000000  -29.09416472713509  0.09643996174836798  6.572928603251488  48.73973425958056  2.326533503400789  -7.335300373527841  29.646587747528145  21.09239655523021  -12.48807208692724  21.625922553226644  0.000000
0.744  0.000000  0.000000  0.000000  -29.07551528099271  0.2994682490947317  6.959072673692696  48.86274498416002  2.3988150830862254  -7.317282160444202  29.13441626761886  22.89441466659191  -12.690336278497433  21.57466250562093  0.000000
0.775  0.000000  0.000000  0.000000  -29.046565543110002  0.5073366198183161  7.383699967659975  48.993368990378876  2.469705235033369  -7.309709457099155  28.610954760604393  24.73303777978426  -12.860017389453493  21.513057508028634  0.000000
0.806  0.000000  0.000000  0.000000  -29.005069720485906  0.7161414275955359  7.845600040169177  49.134086074257596  2.5420892051543387  -7.312829332945461  28.091683930405893  26.592767183722454  -13.014219460613793  21.441249402772165  0.000000
0.837  0.000000  0.000000  0.000000  -28.95536434886027  0.9268275785909071  8.346814604218604  49.284257887279175  2.6182623337745237  -7.3259403145365205  27.602446067476933  28.45121001509245  -13.17644431947597  21.354307549040936  0.000000
0.868  0.000000  0.000000  0.000000  -28.901441379364517  1.1418758947790215  8.88974800455247  49.44172553801046  2.698958552083179  -7.349914668851609  27.167326722325868  30.285303147339096  -13.367625445336685  21.24599207427298  0.000000
0.899  0.000000  0.000000  0.000000  -28.847477508964857  1.36272795367725  9.47652688351228  49.60317377821684  2.7822945738988434  -7.385124424114157  26.794061530613966  32.07503743172717  -13.594584939390538  21.11237128196213  0.000000
0.9299999999999999  0.000000  0.000000  0.000000  -28.794722001401674  1.589137713745699  10.106012031761525  49.7653383883856  2.865290133344504  -7.43336797800211  26.480162454046944  33.80753566099286  -13.857371465634408  20.95235743690048  0.000000
0.961  0.000000  0.000000  0.000000  -28.74631208065298  1.820716132584193  10.775575134359554  49.92344864558962  2.945087405407943  -7.495226400228724  26.218063770815437  35.47504505203451  -14.153115306361475  20.766793191900646  0.000000
0.992  0.000000  0.000000  0.000000  -28.706486414999578  2.058935793265542  11.481718073680328  50.070880351234734  3.0203167773343784  -7.57221789414595  26.009331601534107  37.07388393809551  -14.488613714276568  20.55579048032857  0.000000
1.023  0.000000  0.000000  0.000000  -28.684899364777394  2.308349115992717  12.223722140610901  50.19911156022784  3.090076387363735  -7.66492753044094  25.864384623061305  38.602227756491  -14.878011098278863  20.319210305257926  0.000000
1.054  0.000000  0.000000  0.000000  -28.690168473327514  2.5745108364430873  13.002360495589702  50.3006055371003  3.154603148942589  -7.773877248737826  25.79664330136598  40.06044049650107  -15.336646028432176  20.05687139266118  0.000000
1.085  0.000000  0.000000  0.000000  -28.72901962336032  2.8612778098982736  13.821234157755  50.373186627114315  3.2144395664522465  -7.896218741372187  25.804136589179137  41.450305973039804  -15.86154704091906  19.772448878322553  0.000000
